<?xml version="1.0" encoding="iso-8859-1"?>
<!-- Generator: Adobe Illustrator 19.0.0, SVG Export Plug-In . SVG Version: 6.00 Build 0)  -->
<svg version="1.1" id="Capa_1" xmlns="http://www.w3.org/2000/svg" xmlns:xlink="http://www.w3.org/1999/xlink" x="0px" y="0px"
	 viewBox="0 0 512 512" style="enable-background:new 0 0 512 512;" xml:space="preserve">
<g>
	<path style="fill:#3B4C5B;" d="M504.12,91.038c-2.016,0-4.033-0.769-5.572-2.308l-13.519-13.519c-3.077-3.077-3.077-8.066,0-11.142
		c3.078-3.077,8.066-3.077,11.143,0l13.519,13.519c3.077,3.077,3.077,8.066,0,11.142C508.152,90.269,506.135,91.038,504.12,91.038z"
		/>
	<path style="fill:#3B4C5B;" d="M442.36,29.279c-2.016,0-4.033-0.769-5.571-2.308l-13.52-13.52
		c-3.078-3.077-3.078-8.065-0.001-11.142c3.078-3.077,8.067-3.078,11.142,0l13.52,13.52c3.078,3.077,3.078,8.065,0.001,11.142
		C446.393,28.509,444.376,29.279,442.36,29.279z"/>
</g>
<path style="fill:#FEC755;" d="M248.26,380.01c14.576-2.098,27.954-8.29,38.42-18.756c30.461-30.46,24.723-85.584-12.813-123.12
	c-37.537-37.537-92.66-43.274-123.12-12.813c-10.467,10.467-16.658,23.844-18.756,38.42c-36.028-5.036-72.663,5.392-99.014,31.744
	c-46.666,46.666-43.411,125.584,7.273,176.266s129.6,53.939,176.266,7.273C242.867,452.673,253.296,416.038,248.26,380.01z"/>
<polyline style="fill:#ED6B00;" points="235.946,322.855 435.944,114.972 397.03,76.057 189.146,276.056 "/>
<g>
	<circle style="fill:#3B4C5B;" cx="193.646" cy="318.357" r="42.545"/>
	<path style="fill:#3B4C5B;" d="M469.949,125.209c-2.016,0-4.033-0.769-5.572-2.308l-13.519-13.519
		c-3.077-3.077-3.077-8.066,0-11.142c3.078-3.077,8.066-3.077,11.143,0l13.519,13.519c3.077,3.077,3.077,8.066,0,11.142
		C473.982,124.44,471.965,125.209,469.949,125.209z"/>
	<path style="fill:#3B4C5B;" d="M408.189,63.45c-2.017,0-4.033-0.769-5.572-2.308l-13.519-13.52
		c-3.077-3.077-3.077-8.066,0.001-11.142c3.077-3.078,8.066-3.077,11.142,0L413.76,50c3.077,3.077,3.077,8.066-0.001,11.142
		C412.222,62.68,410.205,63.45,408.189,63.45z"/>
	<path style="fill:#3B4C5B;" d="M487.035,108.124c-2.016,0-4.033-0.769-5.571-2.307l-13.52-13.519
		c-3.078-3.077-3.078-8.066-0.001-11.143c3.078-3.077,8.067-3.077,11.142,0l13.521,13.519c3.078,3.077,3.078,8.066,0.001,11.143
		C491.068,107.355,489.051,108.124,487.035,108.124z"/>
	<path style="fill:#3B4C5B;" d="M425.275,46.364c-2.016,0-4.033-0.769-5.572-2.308l-13.519-13.519
		c-3.077-3.077-3.077-8.066,0-11.142c3.078-3.077,8.066-3.077,11.143,0l13.519,13.519c3.077,3.077,3.077,8.066,0,11.142
		C429.308,45.595,427.291,46.364,425.275,46.364z"/>
</g>
<path style="fill:#FEC755;" d="M494.392,40.46L471.543,17.61c-7.018-7.007-18.385-7.007-25.392,0l-53.788,53.777l48.241,48.251
	l53.788-53.788C501.399,58.844,501.399,47.477,494.392,40.46z M423.901,80.149c-2.017,0-4.034-0.767-5.568-2.311
	c-3.078-3.078-3.078-8.068,0-11.136l32.189-32.199c3.078-3.078,8.068-3.078,11.146,0c3.068,3.078,3.068,8.068,0,11.146
	l-32.199,32.189C427.935,79.382,425.918,80.149,423.901,80.149z M477.499,61.481L445.311,93.67
	c-1.544,1.544-3.561,2.311-5.578,2.311c-2.017,0-4.034-0.767-5.568-2.311c-3.078-3.078-3.078-8.068,0-11.136l32.189-32.199
	c3.078-3.068,8.068-3.068,11.146,0C480.578,53.413,480.578,58.403,477.499,61.481z"/>
<path style="fill:#3B4C5B;" d="M128.305,447.513c-2.016,0-4.033-0.769-5.572-2.308l-55.939-55.938
	c-3.077-3.077-3.077-8.066,0-11.142c3.078-3.077,8.066-3.077,11.143,0l55.939,55.938c3.077,3.077,3.077,8.066,0,11.142
	C132.338,446.744,130.321,447.513,128.305,447.513z"/>
<g>
</g>
<g>
</g>
<g>
</g>
<g>
</g>
<g>
</g>
<g>
</g>
<g>
</g>
<g>
</g>
<g>
</g>
<g>
</g>
<g>
</g>
<g>
</g>
<g>
</g>
<g>
</g>
<g>
</g>
</svg>
